<?xml version="1.0" encoding="UTF-8"?>
<svg width="164px" height="44px" viewBox="0 0 164 44" version="1.1" xmlns="http://www.w3.org/2000/svg" xmlns:xlink="http://www.w3.org/1999/xlink">
    <!-- Generator: Sketch 49.3 (51167) - http://www.bohemiancoding.com/sketch -->
    <title>Logotype white</title>
    <desc>Created with Sketch.</desc>
    <defs></defs>
    <g id="Logotype-white" stroke="none" stroke-width="1" fill="none" fill-rule="evenodd">
        <path d="M10.6777228,9.91740548 L10.1211966,9.91740548 C5.03618249,9.91740548 0.899459722,13.9736692 0.899459722,18.95978 L0.899459722,42.3190482 C0.899459722,42.6493414 1.17223079,42.9174055 1.50968583,42.9174055 C1.84653064,42.9174055 2.11991193,42.6493414 2.11991193,42.3190482 L2.11991193,18.95978 C2.11991193,14.6342556 5.70865165,11.11412 10.1211966,11.11412 L10.6777228,11.11412 C15.0896576,11.11412 18.6790075,14.6342556 18.6790075,18.95978 L18.6790075,42.3190482 C18.6790075,42.6493414 18.9523888,42.9174055 19.2892336,42.9174055 C19.6266887,42.9174055 19.8994597,42.6493414 19.8994597,42.3190482 L19.8994597,18.95978 C19.8994597,13.9736692 15.762737,9.91740548 10.6777228,9.91740548" id="Fill-4-Copy" fill="#FFFFFF"></path>
        <path d="M71.1198727,18.95978 C71.1198727,14.6342556 74.7091074,11.11412 79.1209005,11.11412 L79.6774088,11.11412 C84.089812,11.11412 87.6790467,14.6342556 87.6790467,18.95978 C87.6790467,23.2859029 84.089812,26.8060385 79.6774088,26.8060385 L71.1198727,26.8060385 L71.1198727,18.95978 Z M79.6774088,28.002753 C84.7622596,28.002753 88.8994597,23.9458909 88.8994597,18.95978 C88.8994597,13.9736692 84.7622596,9.91740548 79.6774088,9.91740548 L79.1209005,9.91740548 C74.0360496,9.91740548 69.8994597,13.9736692 69.8994597,18.95978 L69.8994597,33.8750309 C69.8994597,38.8611418 74.0360496,42.9174055 79.1209005,42.9174055 L79.6774088,42.9174055 C84.7622596,42.9174055 88.8994597,38.8611418 88.8994597,33.8750309 L88.8994597,33.1803382 C88.8994597,32.8494466 88.6260872,32.5819809 88.2892532,32.5819809 C87.951809,32.5819809 87.6790467,32.8494466 87.6790467,33.1803382 L87.6790467,33.8750309 C87.6790467,38.2005554 84.089812,41.720691 79.6774088,41.720691 L79.1209005,41.720691 C74.7091074,41.720691 71.1198727,38.2005554 71.1198727,33.8750309 L71.1198727,28.002753 L79.6774088,28.002753 Z" id="Fill-6-Copy" fill="#FFFFFF"></path>
        <path d="M96.1198727,18.95978 C96.1198727,14.6342556 99.7091074,11.11412 104.1209,11.11412 L104.677409,11.11412 C109.089812,11.11412 112.679047,14.6342556 112.679047,18.95978 C112.679047,23.2859029 109.089812,26.8060385 104.677409,26.8060385 L96.1198727,26.8060385 L96.1198727,18.95978 Z M104.677409,28.002753 C109.76226,28.002753 113.89946,23.9458909 113.89946,18.95978 C113.89946,13.9736692 109.76226,9.91740548 104.677409,9.91740548 L104.1209,9.91740548 C99.0360496,9.91740548 94.8994597,13.9736692 94.8994597,18.95978 L94.8994597,33.8750309 C94.8994597,38.8611418 99.0360496,42.9174055 104.1209,42.9174055 L104.677409,42.9174055 C109.76226,42.9174055 113.89946,38.8611418 113.89946,33.8750309 L113.89946,33.1803382 C113.89946,32.8494466 113.626087,32.5819809 113.289253,32.5819809 C112.951809,32.5819809 112.679047,32.8494466 112.679047,33.1803382 L112.679047,33.8750309 C112.679047,38.2005554 109.089812,41.720691 104.677409,41.720691 L104.1209,41.720691 C99.7091074,41.720691 96.1198727,38.2005554 96.1198727,33.8750309 L96.1198727,28.002753 L104.677409,28.002753 Z" id="Fill-8-Copy" fill="#FFFFFF"></path>
        <path d="M162.679047,33.8750309 C162.679047,38.2005554 159.089812,41.720691 154.678019,41.720691 L154.121511,41.720691 C149.709107,41.720691 146.119873,38.2005554 146.119873,33.8744325 C146.119873,29.5489081 149.709107,26.0287725 154.121511,26.0287725 L162.679047,26.0287725 L162.679047,33.8750309 Z M154.678019,9.91740548 L154.121511,9.91740548 C149.03666,9.91740548 144.89946,13.9736692 144.89946,18.95978 L144.89946,19.6544728 C144.89946,19.984766 145.172832,20.25283 145.509666,20.25283 C145.84711,20.25283 146.119873,19.984766 146.119873,19.6544728 L146.119873,18.95978 C146.119873,14.6342556 149.709107,11.11412 154.121511,11.11412 L154.678019,11.11412 C159.089812,11.11412 162.679047,14.6342556 162.679047,18.95978 L162.679047,24.832058 L154.121511,24.832058 C149.03666,24.832058 144.89946,28.88892 144.89946,33.8750309 C144.89946,38.8611418 149.03666,42.9174055 154.121511,42.9174055 L154.678019,42.9174055 C159.76287,42.9174055 163.89946,38.8611418 163.89946,33.8750309 L163.89946,18.95978 C163.89946,13.9736692 159.76287,9.91740548 154.678019,9.91740548 Z" id="Fill-10-Copy" fill="#FFFFFF"></path>
        <path d="M130.677723,9.91740548 L130.121197,9.91740548 C125.036182,9.91740548 120.89946,13.9736692 120.89946,18.95978 L120.89946,42.3190482 C120.89946,42.6493414 121.172231,42.9174055 121.509686,42.9174055 C121.846531,42.9174055 122.119912,42.6493414 122.119912,42.3190482 L122.119912,18.95978 C122.119912,14.6342556 125.708652,11.11412 130.121197,11.11412 L130.677723,11.11412 C135.089658,11.11412 138.679008,14.6342556 138.679008,18.95978 L138.679008,19.6544728 C138.679008,19.984766 138.952389,20.25283 139.289234,20.25283 C139.626689,20.25283 139.89946,19.984766 139.89946,19.6544728 L139.89946,18.95978 C139.89946,13.9736692 135.762737,9.91740548 130.677723,9.91740548" id="Fill-12-Copy" fill="#FFFFFF"></path>
        <path d="M65.2510483,42.6077885 C62.5324468,42.9256567 60.4899982,42.475192 59.1901523,41.2685038 C57.8448409,40.0200385 57.1908377,37.9499597 57.1908377,34.9402019 L57.1908377,11.8187713 L63.9576142,11.8187713 C64.2799526,11.8187713 64.5405047,11.5481292 64.5405047,11.213308 C64.5405047,10.8796978 64.2799526,10.6078448 63.9576142,10.6078448 L57.1908377,10.6078448 L57.1908377,1.52286873 C57.1908377,1.18804755 56.9302856,0.917405477 56.6079471,0.917405477 C56.2856087,0.917405477 56.0250566,1.18804755 56.0250566,1.52286873 L56.0250566,10.6078448 L50.4823503,10.6078448 C50.1600118,10.6078448 49.8994597,10.8796978 49.8994597,11.213308 C49.8994597,11.5481292 50.1600118,11.8187713 50.4823503,11.8187713 L56.0250566,11.8187713 L56.0250566,34.9402019 C56.0250566,38.3138431 56.8061299,40.679388 58.4131592,42.1712495 C59.6640423,43.332528 61.4214574,43.9174055 63.6521795,43.9174055 C64.2000966,43.9174055 64.7771583,43.8816831 65.3821987,43.8108439 C65.7016227,43.7739107 65.9318645,43.4742064 65.8957253,43.1418071 C65.8601689,42.8094077 65.572221,42.5714607 65.2510483,42.6077885" id="Fill-14-Copy" fill="#FFFFFF"></path>
        <path d="M28.1198335,18.95978 C28.1198335,14.6342556 31.7095631,11.11412 36.1212145,11.11412 L36.6770948,11.11412 C41.0893563,11.11412 44.6790859,14.6342556 44.6790859,18.95978 C44.6790859,23.2859029 41.0893563,26.8060385 36.6770948,26.8060385 L28.1198335,26.8060385 L28.1198335,18.95978 Z M36.6770948,28.002753 C41.7617823,28.002753 45.8994597,23.9458909 45.8994597,18.95978 C45.8994597,13.9736692 41.7617823,9.91740548 36.6770948,9.91740548 L36.1212145,9.91740548 C31.036527,9.91740548 26.8994597,13.9736692 26.8994597,18.95978 L26.8994597,33.8750309 C26.8994597,38.8611418 31.036527,42.9174055 36.1212145,42.9174055 L36.6770948,42.9174055 C41.7617823,42.9174055 45.8994597,38.8611418 45.8994597,33.8750309 L45.8994597,33.1803382 C45.8994597,32.8494466 45.626096,32.5819809 45.2892728,32.5819809 C44.9518395,32.5819809 44.6790859,32.8494466 44.6790859,33.1803382 L44.6790859,33.8750309 C44.6790859,38.2005554 41.0893563,41.720691 36.6770948,41.720691 L36.1212145,41.720691 C31.7095631,41.720691 28.1198335,38.2005554 28.1198335,33.8750309 L28.1198335,28.002753 L36.6770948,28.002753 Z" id="Fill-16-Copy" fill="#FFFFFF"></path>
    </g>
</svg>
