<?xml version="1.0" encoding="utf-8"?>
<svg class="" width="338px" height="50px" viewBox="0 0 338 59" version="1.1" xmlns="http://www.w3.org/2000/svg" xmlns:xlink="http://www.w3.org/1999/xlink">
        <!-- Generator: Sketch 49.3 (51167) - http://www.bohemiancoding.com/sketch -->
        <desc>Created with Sketch.</desc>
        <defs></defs>
        <g id="Welcome" stroke="none" stroke-width="1" fill="none" fill-rule="evenodd">
            <g id="Spark-Home-Desktop-HD" transform="translate(-160.000000, -4567.000000)" fill="#FFFFFF" fill-rule="nonzero">
                <g id="Footer" transform="translate(32.000000, 4447.000000)">
                    <g id="SparkCognition_Logo_green" transform="translate(128.000000, 120.000000)">
                        <g id="Group_95" transform="translate(0.200000, 0.600000)">
                            <g id="Group_93">
                                <path d="M13.936,14.415 C8.71690911,14.415 4.486,18.6459091 4.486,23.865 C4.486,29.0840909 8.71690911,33.315 13.936,33.315 C19.1550909,33.315 23.386,29.0840909 23.386,23.865 C23.3749989,18.6504727 19.1505273,14.4260011 13.936,14.415 Z M13.936,30.444 C10.3025186,30.444 7.357,27.4984814 7.357,23.865 C7.357,20.2315186 10.3025186,17.286 13.936,17.286 C17.5694814,17.286 20.515,20.2315186 20.515,23.865 C20.482964,27.4851286 17.5561286,30.411964 13.936,30.444 Z" id="Path_1087"></path>
                                <path d="M56.522,1.35525272e-20 C50.7798282,0.0128959743 45.7354446,3.81461987 44.141,9.331 C44.0063392,9.78141815 43.9060513,10.2414054 43.841,10.707 L21.472,12.2 C20.7674111,11.7417989 20.027398,11.3405265 19.259,11 C17.567805,10.3107024 15.7621357,9.94536225 13.936,9.923 C6.23935973,9.923 -3.55271368e-15,16.1623597 -3.55271368e-15,23.859 C-3.55271368e-15,31.5556403 6.23935973,37.795 13.936,37.795 C16.0280485,37.8011891 18.0940053,37.330612 19.977,36.419 C20.4076339,36.2233102 20.8269585,36.0036322 21.233,35.761 L33.913,47.49 L33.913,47.669 C33.9133256,48.2714414 33.9732846,48.8723712 34.092,49.463 C34.9061302,53.9508305 38.6112031,57.3461146 43.1528862,57.766287 C47.6945692,58.1864594 51.9596531,55.5285317 53.5832989,51.2662313 C55.2069446,47.0039309 53.7911814,42.181988 50.121,39.474 C49.762,39.235 49.403,38.996 48.985,38.756 L57.06,25.779 C57.6230881,25.7786561 58.1845552,25.7186546 58.735,25.6 C65.3404831,24.4657906 69.9754214,18.4598135 69.3982045,11.7825642 C68.8209876,5.10531489 63.2241322,-0.0161716112 56.522,1.06581546e-14 Z M13.936,35.767 C7.32929368,35.767 1.9735,30.4112063 1.9735,23.8045 C1.9735,17.1977937 7.32929368,11.842 13.936,11.842 C15.9478969,11.8339882 17.9270742,12.3510146 19.678,13.342 C20.7307928,13.9221565 21.6971732,14.6468577 22.549,15.495 C23.877403,16.8252058 24.8448526,18.4720384 25.36,20.28 C25.722304,21.4180306 25.9045029,22.6056978 25.9,23.8 L25.9,23.86 C25.8784951,30.4493892 20.5254167,35.7769639 13.936,35.767 Z M23.566,33.913 C23.9151455,33.6036864 24.2354625,33.2632869 24.523,32.896 C26.3768158,30.740511 27.5250953,28.0684053 27.813,25.24 C27.8628425,24.7831216 27.8828849,24.3234828 27.873,23.864 L27.873,23.744 L43.9,15.372 C43.9649119,15.817934 44.065229,16.2579913 44.2,16.688 C44.8647741,18.8382159 46.08154,20.7766284 47.729,22.31 C48.088,22.669 48.507,22.968 48.865,23.267 L45.935,37.681 C45.516,37.621 45.035,37.561 44.619,37.502 L44.081,37.502 C41.6601927,37.4808105 39.3167525,38.3539476 37.5,39.954 C37.141,40.254 36.842,40.612 36.483,40.911 L23.566,33.913 Z M49.166,40.971 C52.3176716,43.3631476 53.3797755,47.6263239 51.7187507,51.2174797 C50.057726,54.8086356 46.1212799,56.7598221 42.2575621,55.9071271 C38.3938444,55.0544321 35.6442693,51.6276882 35.649,47.671 L35.649,47.133 C35.749047,45.3721601 36.4210755,43.6920889 37.563,42.348 C39.1517588,40.3761564 41.5497506,39.2321536 44.082,39.238 C44.8292767,39.2455173 45.572692,39.3462966 46.295,39.538 C47.3376319,39.8195603 48.3134312,40.30678 49.165,40.971 L49.166,40.971 Z M57.838,23.8 C57.4212903,23.8498123 57.0015604,23.8698631 56.582,23.86 C54.6182663,23.8779832 52.6896814,23.3387977 51.02,22.305 C48.5491335,20.8537065 46.7454896,18.491809 45.996,15.726 C45.7311972,14.7914808 45.590325,13.8262204 45.577,12.855 C45.5914619,11.6349493 45.7938365,10.4244121 46.177,9.266 C47.9684712,4.14400438 53.2316994,1.09770681 58.5653779,2.09574552 C63.8990564,3.09378424 67.7047003,7.8370505 67.5229515,13.2602576 C67.3412028,18.6834647 63.2265309,23.1612963 57.838,23.8 Z" id="Path_1088"></path>
                                <path d="M56.522,4.605 C51.9634417,4.605 48.268,8.30044167 48.268,12.859 C48.268,17.4175583 51.9634417,21.113 56.522,21.113 C61.0805583,21.113 64.776,17.4175583 64.776,12.859 C64.766648,8.30432102 61.076679,4.61435199 56.522,4.605 Z M56.522,18.661 C53.3187485,18.661 50.722,16.0642515 50.722,12.861 C50.722,9.65774845 53.3187485,7.061 56.522,7.061 C59.7252515,7.061 62.322,9.65774845 62.322,12.861 C62.3181429,16.0626525 59.7236525,18.6571429 56.522,18.661 Z" id="Path_1089"></path>
                                <path d="M44.081,41.27 C40.5463776,41.27 37.681,44.1353776 37.681,47.67 C37.681,51.2046224 40.5463776,54.07 44.081,54.07 C47.6156224,54.07 50.481,51.2046224 50.481,47.67 C50.4771421,44.1369768 47.6140232,41.2738579 44.081,41.27 Z M44.081,51.976 C41.7025857,51.976 39.7745,50.0479143 39.7745,47.6695 C39.7745,45.2910857 41.7025857,43.363 44.081,43.363 C45.6352043,43.3393158 47.0815915,44.1549108 47.8656111,45.4970826 C48.6496307,46.8392544 48.6496307,48.4997456 47.8656111,49.8419174 C47.0815915,51.1840892 45.6352043,51.9996842 44.081,51.976 Z" id="Path_1090"></path>
                            </g>
                            <g id="Group_94" transform="translate(74.585000, 14.235000)">
                                <path d="M3.529,18.064 C2.71602375,17.7946915 1.96404753,17.3679034 1.316,16.808 C0.497366799,16.0011725 0.0253125484,14.9071258 0,13.758 C0.00572498299,12.9353372 0.233026702,12.1294179 0.658,11.425 C1.14670264,10.7268706 1.75387061,10.1197026 2.452,9.631 C3.2156664,9.14587024 4.04015095,8.76389045 4.904,8.495 C5.79946808,8.23899411 6.7239202,8.09819242 7.655,8.076 C10.4735577,8.07314864 13.14786,9.3220112 14.955,11.485 C15.1967622,11.7910627 15.3237721,12.1720925 15.314,12.562 C15.320868,13.0265239 15.1494457,13.4760154 14.835,13.818 C14.5021543,14.1468281 14.0462495,14.3203333 13.579,14.296 C13.2540775,14.2982883 12.937565,14.1927842 12.679,13.996 C12.425028,13.7931957 12.1851413,13.5733552 11.961,13.338 C10.8595315,12.2140714 9.34759771,11.5875596 7.774,11.603 C6.32338619,11.5256318 4.90876906,12.0713946 3.886,13.103 C3.69218929,13.2913526 3.58380553,13.5507511 3.586,13.821 C3.56287309,14.1093366 3.73394639,14.3779911 4.005,14.479 L11.96,17.111 C12.7860263,17.3501615 13.5441441,17.7804354 14.173,18.367 C14.9916332,19.1738275 15.4636875,20.2678742 15.489,21.417 C15.4998134,22.2419245 15.2712562,23.0522953 14.831,23.75 C14.3422974,24.4481294 13.7351294,25.0552974 13.037,25.544 C12.2733336,26.0291298 11.448849,26.4111096 10.585,26.68 C9.68953192,26.9360059 8.7650798,27.0768076 7.834,27.099 C5.02653107,27.1106989 2.35631647,25.8856922 0.534,23.75 C0.300774774,23.4393943 0.174783228,23.0614197 0.175,22.673 C0.167860055,22.2086127 0.338917795,21.7591388 0.653,21.417 C0.98584569,21.0881719 1.44175051,20.9146667 1.909,20.939 C2.26257987,20.9294687 2.60592623,21.0582685 2.866,21.298 C3.105,21.537 3.345,21.717 3.584,21.956 C4.70246347,23.0913377 6.23751352,23.718442 7.831,23.691 C9.28161381,23.7683682 10.6962309,23.2226054 11.719,22.191 C11.8943465,21.9949094 11.9808418,21.7350614 11.958,21.473 C11.9553472,21.1738436 11.7628709,20.9094399 11.479,20.815 L3.529,18.064 Z" id="Path_1091"></path>
                                <path d="M27.513,27.094 C25.3530095,27.1240264 23.2532814,26.3817986 21.592,25.001 L21.592,33.434 C21.6054029,33.91128 21.4087371,34.3704105 21.054,34.69 C20.7211543,35.0188281 20.2652495,35.1923333 19.798,35.168 C19.3336127,35.1751399 18.8841388,35.0040822 18.542,34.69 C18.2128063,34.3573252 18.03893,33.9013988 18.063,33.434 L18.063,17.644 C18.0479869,15.1331318 19.0387873,12.7207546 20.814271,10.945271 C22.5897546,9.16978734 25.0021318,8.17898693 27.513,8.194 C30.0292696,8.15245094 32.4519612,9.1472009 34.213,10.945 C35.1021265,11.8160897 35.8130349,12.8520527 36.306,13.995 C36.7901957,15.1497416 37.0344799,16.3908962 37.024,17.643 C37.0883681,20.1635232 36.0900231,22.5949704 34.273,24.343 C33.3854338,25.2400582 32.3282402,25.9515393 31.163,26.436 C30.0036179,26.900842 28.7617198,27.1247239 27.513,27.094 Z M21.532,17.644 C21.5404566,18.445102 21.7027305,19.2371207 22.01,19.977 C22.2986553,20.6915983 22.7243152,21.3428274 23.263,21.894 C23.7910615,22.4321102 24.421428,22.8591546 25.117,23.15 C26.6065766,23.7879135 28.2924234,23.7879135 29.782,23.15 C30.5105611,22.860315 31.1646854,22.4105618 31.696,21.834 C32.7808311,20.7065325 33.4004128,19.2113228 33.431,17.647 C33.4286533,16.8646312 33.2659724,16.0910459 32.953,15.374 C32.6631074,14.6602233 32.2364346,14.0100229 31.697,13.46 C31.144726,12.9081215 30.4960175,12.4620921 29.783,12.144 C28.2934234,11.5060865 26.6075766,11.5060865 25.118,12.144 C24.4146602,12.4180242 23.7810405,12.8449916 23.263,13.394 C22.7107172,13.9335573 22.2821781,14.5866018 22.007,15.308 C21.6945398,16.0472205 21.5330408,16.8414558 21.532,17.644 Z" id="Path_1092"></path>
                                <path d="M55.147,25.36 L55.147,25.001 C54.3137902,25.655286 53.3862664,26.1795679 52.396,26.556 C51.3786508,26.9182793 50.3059099,27.1003407 49.226,27.094 C45.4045385,27.0846643 41.9628341,24.7803363 40.4983929,21.2505959 C39.0339518,17.7208555 39.8335322,13.6568762 42.526,10.945 C44.2805542,9.13759508 46.7075937,8.14105991 49.226,8.194 C51.7422696,8.15245094 54.1649612,9.1472009 55.926,10.945 C57.7334049,12.6995542 58.7299401,15.1265937 58.677,17.645 L58.677,25.361 C58.6846597,26.0874398 58.2491157,26.745302 57.5773645,27.0219314 C56.9056133,27.2985607 56.1331123,27.1381754 55.627,26.617 C55.3213953,26.2691447 55.1510349,25.8230133 55.147,25.36 Z M49.166,11.66 C48.3642621,11.6623896 47.571078,11.8249023 46.833,12.138 C46.1280196,12.4133806 45.4932931,12.842453 44.975,13.394 C44.4227172,13.9335573 43.9941781,14.5866018 43.719,15.308 C43.4055592,16.0460073 43.242706,16.8391941 43.24,17.641 C43.2487737,18.4421674 43.4113876,19.2341886 43.719,19.974 C44.0082038,20.6899131 44.4349125,21.3422066 44.975,21.894 C45.5030615,22.4321102 46.133428,22.8591546 46.829,23.15 C48.3185766,23.7879135 50.0044234,23.7879135 51.494,23.15 C52.2225611,22.860315 52.8766854,22.4105618 53.408,21.834 C54.4928311,20.7065325 55.1124128,19.2113228 55.143,17.647 C55.1403379,16.8645613 54.977316,16.0909731 54.664,15.374 C54.3741074,14.6602233 53.9474346,14.0100229 53.408,13.46 C52.855726,12.9081215 52.2070175,12.4620921 51.494,12.144 C50.7573744,11.8303942 49.9655941,11.6668707 49.165,11.663 L49.166,11.66 Z" id="Path_1093"></path>
                                <path d="M64.836,9.928 L64.836,10.287 C65.6693388,9.63341871 66.596856,9.10981485 67.587,8.734 C68.6043492,8.37172072 69.6770901,8.18965933 70.757,8.196 C71.235,8.196 71.774,8.256 72.372,8.316 C72.9041319,8.36511402 73.4271928,8.48587215 73.927,8.675 C74.3729665,8.82744362 74.7818362,9.07208397 75.127,9.393 C75.4408399,9.71269388 75.6130728,10.1450776 75.605,10.593 C75.5942934,10.8363171 75.5539968,11.077425 75.485,11.311 C75.3940178,11.5078993 75.2728969,11.6894118 75.126,11.849 C74.7949762,12.1806504 74.3377649,12.3546527 73.87,12.327 C73.6199342,12.3245183 73.3739654,12.2631974 73.152,12.148 C71.6467838,11.569358 69.976836,11.5908364 68.487,12.208 C67.7732233,12.4978926 67.1230229,12.9245654 66.573,13.464 C66.0207172,14.0035573 65.5921781,14.6566018 65.317,15.378 C65.0039023,16.116078 64.8413896,16.9092621 64.839,17.711 L64.839,25.427 C64.8159923,26.4015738 64.0193454,27.1796355 63.0445,27.1796355 C62.0696546,27.1796355 61.2730077,26.4015738 61.25,25.427 L61.25,9.928 C61.2423403,9.20156019 61.6778843,8.54369795 62.3496355,8.26706861 C63.0213867,7.99043926 63.7938877,8.15082462 64.3,8.672 C64.6766783,8.97528408 64.8776413,9.44619736 64.836,9.928 Z" id="Path_1094"></path>
                                <path d="M78.233,25.36 L78.233,1.794 C78.2560077,0.819426165 79.0526546,0.0413644898 80.0275,0.0413644898 C81.0023454,0.0413644898 81.7989923,0.819426165 81.822,1.794 L81.822,15.013 L91.933,8.433 C92.2173029,8.24470424 92.5490833,8.14069785 92.89,8.133 C93.1333171,8.14370659 93.374425,8.18400317 93.608,8.253 C93.8048913,8.34399648 93.9864017,8.4651159 94.146,8.612 C94.3056528,8.76116514 94.4285385,8.94532244 94.505,9.15 C94.6022451,9.35493939 94.6436409,9.58192637 94.625,9.808 C94.6482568,10.3641315 94.4035855,10.8977231 93.967,11.243 L86.849,15.908 L94.149,24.102 C94.4536564,24.449883 94.6232801,24.8955887 94.627,25.358 C94.6215705,25.5822503 94.5810807,25.8042696 94.507,26.016 C94.4160178,26.2128993 94.2948969,26.3944118 94.148,26.554 C93.8169762,26.8856504 93.3597649,27.0596527 92.892,27.032 C92.4440776,27.0400728 92.0116939,26.8678399 91.692,26.554 L83.857,17.762 L81.764,19.138 L81.764,25.238 C81.7706337,25.9639478 81.3350077,26.62093 80.6637208,26.8973681 C79.9924339,27.1738063 79.2204943,27.0141035 78.714,26.494 C78.3919261,26.2071123 78.2154101,25.7909603 78.233,25.36 Z" id="Path_1095"></path>
                                <path d="M111.668,21.771 C112.134298,21.7526 112.58792,21.9252363 112.924,22.249 C113.252828,22.5818457 113.426333,23.0377505 113.402,23.505 C113.404558,23.9977085 113.210991,24.4711922 112.864,24.821 C110.08336,27.2688715 106.1243,27.8552685 102.753477,26.3185223 C99.3826545,24.7817761 97.2287878,21.4085173 97.253,17.704 C97.2379869,15.1931318 98.2287873,12.7807546 100.004271,11.005271 C101.779755,9.22978734 104.192132,8.23898693 106.703,8.254 C108.979678,8.2138525 111.18495,9.04892796 112.864,10.587 C113.249936,10.9144732 113.469882,11.3968864 113.464,11.903 C113.47114,12.3673873 113.300082,12.8168612 112.986,13.159 C112.653154,13.4878281 112.197249,13.6613333 111.73,13.637 C111.3107,13.6538347 110.901946,13.5030704 110.594,13.218 C110.052143,12.7728354 109.447652,12.4099383 108.8,12.141 C108.129691,11.8960945 107.420607,11.7744695 106.707,11.782 C105.905262,11.7843896 105.112078,11.9469023 104.374,12.26 C103.660223,12.5498926 103.010023,12.9765654 102.46,13.516 C101.907692,14.055537 101.47915,14.7085872 101.204,15.43 C100.566086,16.9195766 100.566086,18.6054234 101.204,20.095 C101.776569,21.5447432 102.924257,22.6924314 104.374,23.265 C105.112078,23.5780977 105.905262,23.7406104 106.707,23.743 C107.420188,23.7453973 108.128376,23.623926 108.8,23.384 C109.461174,23.1426166 110.070105,22.7770548 110.594,22.307 C110.831348,21.9502123 111.240198,21.7461682 111.668,21.771 Z" id="Path_1096"></path>
                                <path d="M136.429,17.644 C136.493368,20.1645232 135.495023,22.5959704 133.678,24.344 C131.917032,26.1411775 129.494776,27.1355354 126.979,27.094 C123.157538,27.0846643 119.715834,24.7803363 118.251393,21.2505959 C116.786952,17.7208555 117.586532,13.6568762 120.279,10.945 C122.033554,9.13759508 124.460594,8.14105991 126.979,8.194 C129.49527,8.15245094 131.917961,9.1472009 133.679,10.945 C134.555125,11.8269334 135.26424,12.8602836 135.772,13.995 C136.207798,15.162162 136.430334,16.3981327 136.429,17.644 Z M126.919,11.663 C126.117262,11.6653896 125.324078,11.8279023 124.586,12.141 C123.881661,12.4156374 123.247311,12.8436612 122.729,13.394 C122.176717,13.9335573 121.748178,14.5866018 121.473,15.308 C121.159902,16.046078 120.99739,16.8392621 120.995,17.641 C121.003432,18.4421046 121.165707,19.2341281 121.473,19.974 C121.762204,20.6899131 122.188912,21.3422066 122.729,21.894 C123.257062,22.4321102 123.887428,22.8591546 124.583,23.15 C126.072577,23.7879135 127.758423,23.7879135 129.248,23.15 C129.976561,22.860315 130.630685,22.4105618 131.162,21.834 C132.246831,20.7065325 132.866413,19.2113228 132.897,17.647 C132.894653,16.8646312 132.731972,16.0910459 132.419,15.374 C132.129107,14.6602233 131.702435,14.0100229 131.163,13.46 C130.610726,12.9081215 129.962017,12.4620921 129.249,12.144 C128.512064,11.830264 127.719931,11.6667377 126.919,11.663 Z" id="Path_1097"></path>
                                <path d="M153.955,25.061 C150.038577,28.1982651 144.353948,27.7316665 141.001515,23.9977682 C137.649082,20.2638699 137.795432,14.5620015 141.335,11.005 C143.089554,9.19759508 145.516594,8.20105991 148.035,8.254 C150.55127,8.21245094 152.973961,9.2072009 154.735,11.005 C156.542405,12.7595542 157.53894,15.1865937 157.486,17.705 L157.486,27.095 C157.488469,27.8866102 157.367344,28.6737536 157.127,29.428 C156.885054,30.1316378 156.542501,30.7965358 156.11,31.402 C155.670722,32.0112222 155.147163,32.5549829 154.555,33.017 C153.954651,33.4904085 153.314234,33.9106613 152.641,34.273 C151.952752,34.6123136 151.228995,34.8742481 150.483,35.054 C149.739544,35.2418785 148.976742,35.3425563 148.21,35.354 C147.320302,35.3563893 146.434558,35.2355754 145.578,34.995 C144.723063,34.7549135 143.89989,34.4134914 143.126,33.978 C142.344811,33.5064939 141.622126,32.944256 140.973,32.303 C140.330719,31.6328003 139.768605,30.8901394 139.298,30.09 C139.101424,29.8097073 138.99661,29.4753507 138.998,29.133 C138.984597,28.65572 139.181263,28.1965895 139.536,27.877 C139.868846,27.5481719 140.324751,27.3746667 140.792,27.399 C141.090479,27.3772327 141.387019,27.4619077 141.629,27.638 C141.982223,27.9489487 142.285741,28.312159 142.529,28.715 C142.826336,29.1657522 143.16695,29.5864125 143.546,29.971 C144.76172,31.2380021 146.455733,31.933038 148.211,31.885 C149.961096,31.9053955 151.644546,31.2146937 152.876,29.971 C153.582641,29.2207222 154.006802,28.2483333 154.076,27.22 L154.076,25.061 L153.955,25.061 Z M147.974,11.661 C147.172262,11.6633896 146.379078,11.8259023 145.641,12.139 C144.937454,12.4149023 144.304141,12.8439431 143.787,13.395 C143.234692,13.934537 142.80615,14.5875872 142.531,15.309 C142.217559,16.0470073 142.054706,16.8401941 142.052,17.642 C142.060749,18.4431701 142.223364,19.235196 142.531,19.975 C142.82087,20.6887887 143.247545,21.3389934 143.787,21.889 C144.315044,22.427131 144.945415,22.8541784 145.641,23.145 C147.130577,23.7829135 148.816423,23.7829135 150.306,23.145 C151.034561,22.855315 151.688685,22.4055618 152.22,21.829 C153.304831,20.7015325 153.924413,19.2063228 153.955,17.642 C153.952653,16.8596312 153.789972,16.0860459 153.477,15.369 C153.187107,14.6552233 152.760435,14.0050229 152.221,13.455 C151.668726,12.9031215 151.020017,12.4570921 150.307,12.139 C149.568471,11.8264579 148.774939,11.6646237 147.973,11.663 L147.974,11.661 Z" id="Path_1098"></path>
                                <path d="M164.362,9.869 C165.893402,8.71362382 167.766896,8.10296947 169.685,8.134 C174.573283,8.19124765 178.512775,12.1574423 178.537,17.046 L178.537,25.42 C178.513992,26.3945738 177.717345,27.1726355 176.7425,27.1726355 C175.767655,27.1726355 174.971008,26.3945738 174.948,25.42 L174.948,17.046 C174.965559,16.3448932 174.822225,15.6490859 174.529,15.012 C173.985154,13.7505444 172.979456,12.744846 171.718,12.201 C171.07901,11.9136159 170.384547,11.7705578 169.684,11.782 C168.982893,11.7644405 168.287086,11.9077755 167.65,12.201 C167.02646,12.473261 166.458594,12.8583927 165.975,13.337 C165.509529,13.8312581 165.126028,14.3967202 164.839,15.012 C164.551616,15.6509895 164.408558,16.3454529 164.42,17.046 L164.42,25.42 C164.396992,26.3945738 163.600345,27.1726355 162.6255,27.1726355 C161.650655,27.1726355 160.854008,26.3945738 160.831,25.42 L160.831,9.928 C160.82334,9.20156019 161.258884,8.54369795 161.930635,8.26706861 C162.602387,7.99043926 163.374888,8.15082462 163.881,8.672 C164.176025,9.00269395 164.346171,9.4261145 164.362,9.869 Z" id="Path_1099"></path>
                                <path d="M185.954,4.785 C185.929006,5.7546028 185.226028,6.57312901 184.27132,6.74426142 C183.316611,6.91539384 182.373093,6.39200369 182.012872,5.49145104 C181.652651,4.5908984 181.97493,3.5611897 182.784293,3.02669364 C183.593655,2.49219758 184.667209,2.60011096 185.354,3.285 C185.73387,3.69280219 185.947835,4.22771597 185.954,4.785 Z M182.067,25.361 L182.067,9.929 C182.090008,8.95442617 182.886655,8.17636449 183.8615,8.17636449 C184.836345,8.17636449 185.632992,8.95442617 185.656,9.929 L185.656,25.361 C185.632992,26.3355738 184.836345,27.1136355 183.8615,27.1136355 C182.886655,27.1136355 182.090008,26.3355738 182.067,25.361 Z" id="Path_1100"></path>
                                <path d="M190.918,8.134 L191.696,8.134 L191.696,1.794 C191.719008,0.819426165 192.515655,0.0413644898 193.4905,0.0413644898 C194.465345,0.0413644898 195.261992,0.819426165 195.285,1.794 L195.285,8.134 L197.378,8.134 C198.352574,8.1570077 199.130636,8.95365462 199.130636,9.9285 C199.130636,10.9033454 198.352574,11.6999923 197.378,11.723 L195.283,11.723 L195.283,20.216 C195.283,22.489 196.419,23.565 198.692,23.565 C199.166969,23.5633305 199.621511,23.7580308 199.948,24.103 C200.276828,24.4358457 200.450333,24.8917505 200.426,25.359 C200.42228,25.8214113 200.252656,26.267117 199.948,26.615 C199.621511,26.9599692 199.166969,27.1546695 198.692,27.153 C194.087,27.153 191.754,24.82 191.754,20.215 L191.754,11.663 L190.976,11.663 C190.24956,11.6706597 189.591698,11.2351157 189.315069,10.5633645 C189.038439,9.89161334 189.198825,9.11911232 189.72,8.613 C190.039041,8.29929291 190.470623,8.126732 190.918,8.134 Z" id="Path_1101"></path>
                                <path d="M208.204,4.785 C208.179006,5.7546028 207.476028,6.57312901 206.52132,6.74426142 C205.566611,6.91539384 204.623093,6.39200369 204.262872,5.49145104 C203.902651,4.5908984 204.22493,3.5611897 205.034293,3.02669364 C205.843655,2.49219758 206.917209,2.60011096 207.604,3.285 C208.007734,3.67724426 208.225846,4.22252381 208.204,4.785 Z M204.376,25.36 L204.376,9.929 C204.399008,8.95442617 205.195655,8.17636449 206.1705,8.17636449 C207.145345,8.17636449 207.941992,8.95442617 207.965,9.929 L207.965,25.361 C207.941992,26.3355738 207.145345,27.1136355 206.1705,27.1136355 C205.195655,27.1136355 204.399008,26.3355738 204.376,25.361 L204.376,25.36 Z" id="Path_1102"></path>
                                <path d="M230.513,17.644 C230.577368,20.1645232 229.579023,22.5959704 227.762,24.344 C226.001032,26.1411775 223.578776,27.1355354 221.063,27.094 C217.241538,27.0846643 213.799834,24.7803363 212.335393,21.2505959 C210.870952,17.7208555 211.670532,13.6568762 214.363,10.945 C216.117554,9.13759508 218.544594,8.14105991 221.063,8.194 C223.57927,8.15245094 226.001961,9.1472009 227.763,10.945 C228.639006,11.8270322 229.348105,12.8603594 229.856,13.995 C230.291798,15.162162 230.514334,16.3981327 230.513,17.644 Z M221.063,11.663 C220.261262,11.6653896 219.468078,11.8279023 218.73,12.141 C218.026439,12.4168725 217.393119,12.8459175 216.876,13.397 C216.323717,13.9365573 215.895178,14.5896018 215.62,15.311 C215.306902,16.049078 215.14439,16.8422621 215.142,17.644 C215.150457,18.445102 215.31273,19.2371207 215.62,19.977 C215.909893,20.6907767 216.336565,21.3409771 216.876,21.891 C217.404062,22.4291102 218.034428,22.8561546 218.73,23.147 C220.219577,23.7849135 221.905423,23.7849135 223.395,23.147 C224.123545,22.8572847 224.777663,22.4075359 225.309,21.831 C226.393466,20.7033777 227.012683,19.2081862 227.043,17.644 C227.040338,16.8615613 226.877316,16.0879731 226.564,15.371 C226.274107,14.6572233 225.847435,14.0070229 225.308,13.457 C224.755711,12.9051389 224.107006,12.4591118 223.394,12.141 C222.656542,11.8281631 221.864064,11.6656557 221.063,11.663 Z" id="Path_1103"></path>
                                <path d="M236.794,9.869 C238.325402,8.71362382 240.198896,8.10296947 242.117,8.134 C247.005283,8.19124765 250.944775,12.1574423 250.969,17.046 L250.969,25.42 C250.945992,26.3945738 250.149345,27.1726355 249.1745,27.1726355 C248.199655,27.1726355 247.403008,26.3945738 247.38,25.42 L247.38,17.046 C247.397559,16.3448932 247.254225,15.6490859 246.961,15.012 C246.417154,13.7505444 245.411456,12.744846 244.15,12.201 C243.51101,11.9136159 242.816547,11.7705578 242.116,11.782 C241.414893,11.7644405 240.719086,11.9077755 240.082,12.201 C239.45846,12.473261 238.890594,12.8583927 238.407,13.337 C237.941516,13.8312473 237.558013,14.3967117 237.271,15.012 C236.983616,15.6509895 236.840558,16.3454529 236.852,17.046 L236.852,25.42 C236.828992,26.3945738 236.032345,27.1726355 235.0575,27.1726355 C234.082655,27.1726355 233.286008,26.3945738 233.263,25.42 L233.263,9.928 C233.25534,9.20156019 233.690884,8.54369795 234.362635,8.26706861 C235.034387,7.99043926 235.806888,8.15082462 236.313,8.672 C236.608025,9.00269395 236.778171,9.4261145 236.794,9.869 Z" id="Path_1104"></path>
                            </g>
                        </g>
                        <g id="Group_96" transform="translate(325.454000, 15.912000)">
                            <polygon id="Path_1105" points="2.034 6.28 2.034 0.78 0 0.78 0 0.06 4.964 0.06 4.964 0.778 2.871 0.778 2.871 6.278"></polygon>
                            <path d="M5.742,6.28 L5.742,0.06 L6.998,0.06 L8.498,4.486 C8.618,4.905 8.737,5.204 8.798,5.386 C8.858,5.147 8.977,4.848 9.157,4.369 L10.657,0.003 L11.793,0.003 L11.793,6.283 L11.016,6.283 L11.016,1.083 L9.222,6.346 L8.385,6.346 L6.591,1.023 L6.591,6.34 L5.742,6.34 L5.742,6.28 Z" id="Path_1106"></path>
                        </g>
                    </g>
                </g>
            </g>
        </g>
    </svg>
