<?xml version="1.0" encoding="utf-8"?>
<!-- Generator: Adobe Illustrator 19.0.0, SVG Export Plug-In . SVG Version: 6.00 Build 0)  -->
<svg version="1.1" id="Capa_1" xmlns="http://www.w3.org/2000/svg" xmlns:xlink="http://www.w3.org/1999/xlink" x="0px" y="0px"
	 viewBox="-426 254.3 264.7 53.7" style="enable-background:new -426 254.3 264.7 53.7;" xml:space="preserve">
<style type="text/css">
	.st0{fill:#919393;}
	.st1{fill:#A3CF68;}
	.st2{fill:#7FCDCC;}
	.st3{fill:#7BAED5;}
</style>
<g>
	<g>
		<path class="st0" d="M-314.4,275.7c-0.4-0.5-0.9-0.8-1.5-1.1c-0.6-0.2-1.3-0.3-1.8-0.3c-0.3,0-0.7,0-1.1,0.1
			c-0.4,0.1-0.7,0.2-1,0.4c-0.3,0.2-0.6,0.4-0.8,0.7c-0.2,0.3-0.3,0.6-0.3,1c0,0.6,0.2,1.1,0.7,1.5c0.5,0.3,1.1,0.6,1.8,0.9
			c0.7,0.2,1.5,0.5,2.4,0.7c0.8,0.2,1.6,0.6,2.4,1c0.7,0.4,1.3,1,1.8,1.8c0.5,0.7,0.7,1.7,0.7,3c0,1.2-0.2,2.2-0.7,3.1
			c-0.4,0.9-1,1.6-1.8,2.2c-0.8,0.6-1.6,1-2.6,1.3c-1,0.3-2,0.4-3.1,0.4c-1.4,0-2.7-0.2-3.8-0.6c-1.2-0.4-2.3-1.1-3.3-2l3.3-3.7
			c0.5,0.6,1.1,1.1,1.8,1.5c0.7,0.3,1.5,0.5,2.3,0.5c0.4,0,0.8,0,1.2-0.1c0.4-0.1,0.7-0.2,1.1-0.4c0.3-0.2,0.6-0.4,0.7-0.7
			c0.2-0.3,0.3-0.6,0.3-1c0-0.6-0.2-1.1-0.7-1.5c-0.5-0.4-1.1-0.7-1.8-0.9c-0.7-0.3-1.5-0.5-2.4-0.8c-0.9-0.3-1.7-0.6-2.4-1
			c-0.7-0.4-1.4-1-1.8-1.7c-0.5-0.7-0.7-1.7-0.7-2.8c0-1.1,0.2-2.1,0.7-3c0.5-0.9,1-1.6,1.8-2.2c0.8-0.6,1.6-1,2.6-1.3
			c1-0.3,2-0.4,3-0.4c1.2,0,2.4,0.2,3.5,0.5c1.1,0.3,2.1,0.9,3,1.7L-314.4,275.7z"/>
		<path class="st0" d="M-290.8,283.6c0,1.3-0.2,2.4-0.6,3.5c-0.4,1.1-0.9,2-1.7,2.8c-0.8,0.8-1.7,1.4-2.8,1.8
			c-1.1,0.4-2.4,0.7-3.9,0.7c-1.5,0-2.8-0.2-3.9-0.7c-1.1-0.4-2.1-1-2.8-1.8c-0.7-0.8-1.3-1.7-1.7-2.8c-0.4-1.1-0.6-2.2-0.6-3.5v-13
			h4.7v12.9c0,0.7,0.1,1.3,0.3,1.8s0.5,1,0.9,1.5c0.4,0.4,0.8,0.7,1.4,1c0.5,0.2,1.1,0.3,1.7,0.3c0.6,0,1.2-0.1,1.7-0.3
			c0.5-0.2,1-0.5,1.3-1c0.4-0.4,0.7-0.9,0.9-1.5c0.2-0.6,0.3-1.2,0.3-1.8v-12.9h4.7V283.6z"/>
		<path class="st0" d="M-282.9,274.7h-6.1v-4.1h16.8v4.1h-6.1v17.1h-4.7V274.7z"/>
		<path class="st0" d="M-270.2,270.5h14.4v4.3h-9.7v4h9.2v4.3h-9.2v4.3h10.3v4.3h-15V270.5z"/>
		<path class="st0" d="M-252.7,270.5h4.7v16.9h8.7v4.3h-13.3V270.5z"/>
		<path class="st0" d="M-237.4,270.5h4.7v21.2h-4.7V270.5z"/>
		<path class="st0" d="M-230,270.5h6.4l9,14.8h0.1v-14.8h4.7v21.2h-6.1l-9.3-15.1h-0.1v15.1h-4.7V270.5z"/>
		<path class="st0" d="M-192.9,276.1c-0.5-0.6-1-1-1.7-1.3c-0.7-0.3-1.4-0.4-2.3-0.4c-0.9,0-1.7,0.2-2.4,0.5s-1.4,0.8-1.9,1.4
			c-0.6,0.6-1,1.3-1.3,2.2c-0.3,0.8-0.5,1.7-0.5,2.7c0,1,0.2,1.9,0.5,2.7c0.3,0.8,0.7,1.5,1.3,2.2c0.5,0.6,1.2,1.1,1.9,1.4
			c0.7,0.3,1.5,0.5,2.4,0.5c1,0,1.8-0.2,2.5-0.6s1.3-1,1.8-1.7l3.9,2.9c-0.9,1.3-2,2.2-3.4,2.8c-1.4,0.6-2.8,0.9-4.3,0.9
			c-1.7,0-3.2-0.3-4.6-0.8c-1.4-0.5-2.6-1.3-3.6-2.2c-1-1-1.8-2.1-2.4-3.5c-0.6-1.4-0.9-2.9-0.9-4.6c0-1.7,0.3-3.2,0.9-4.6
			c0.6-1.4,1.4-2.6,2.4-3.5c1-1,2.2-1.7,3.6-2.2c1.4-0.5,2.9-0.8,4.6-0.8c0.6,0,1.2,0.1,1.9,0.2c0.7,0.1,1.3,0.3,1.9,0.5
			c0.6,0.2,1.2,0.6,1.8,1c0.6,0.4,1.1,0.9,1.6,1.5L-192.9,276.1z"/>
		<path class="st0" d="M-188.8,281.1c0-1.7,0.3-3.2,0.9-4.6c0.6-1.4,1.4-2.6,2.4-3.5c1-1,2.2-1.7,3.6-2.2c1.4-0.5,2.9-0.8,4.6-0.8
			c1.7,0,3.2,0.3,4.6,0.8c1.4,0.5,2.6,1.3,3.6,2.2c1,1,1.8,2.1,2.4,3.5c0.6,1.4,0.9,2.9,0.9,4.6c0,1.7-0.3,3.2-0.9,4.6
			c-0.6,1.4-1.4,2.6-2.4,3.5c-1,1-2.2,1.7-3.6,2.2c-1.4,0.5-2.9,0.8-4.6,0.8c-1.7,0-3.2-0.3-4.6-0.8c-1.4-0.5-2.6-1.3-3.6-2.2
			c-1-1-1.8-2.1-2.4-3.5C-188.6,284.4-188.8,282.9-188.8,281.1z M-184,281.1c0,1,0.2,1.9,0.5,2.7c0.3,0.8,0.8,1.5,1.3,2.2
			c0.6,0.6,1.3,1.1,2.1,1.4c0.8,0.3,1.7,0.5,2.7,0.5s1.9-0.2,2.7-0.5c0.8-0.3,1.5-0.8,2.1-1.4c0.6-0.6,1-1.3,1.3-2.2
			c0.3-0.8,0.5-1.7,0.5-2.7c0-1-0.2-1.9-0.5-2.7c-0.3-0.8-0.8-1.6-1.3-2.2c-0.6-0.6-1.3-1.1-2.1-1.4s-1.7-0.5-2.7-0.5
			s-1.9,0.2-2.7,0.5c-0.8,0.3-1.5,0.8-2.1,1.4c-0.6,0.6-1,1.3-1.3,2.2C-183.8,279.3-184,280.2-184,281.1z"/>
	</g>
</g>
<g>
	<path class="st1" d="M-391.2,261.7c0.1-0.1,0.1-0.1,0.1-0.3c0-0.1-0.1-0.2-0.2-0.2c-3.2-1.7-6.8-2.5-10.5-2.5
		c-12.5,0-22.7,10.1-22.7,22.5c0,12.4,10.2,22.5,22.7,22.5c3.6,0,7.3-0.9,10.5-2.5c0.1,0,0.1-0.1,0.2-0.2c0-0.1,0-0.2-0.1-0.3
		c-3.1-2-5.7-4.6-7.6-7.8c-2.1-3.5-3.2-7.6-3.2-11.7c0-4.1,1.1-8.2,3.2-11.7C-396.9,266.3-394.3,263.6-391.2,261.7z"/>
	<path class="st2" d="M-368.3,300.6c-3.1-2-5.7-4.6-7.6-7.8c-1.2-2.1-2.1-4.3-2.6-6.6c0-0.1-0.1-0.2-0.3-0.2s-0.2,0.1-0.3,0.2
		c-0.5,2.3-1.4,4.6-2.6,6.6c-1.9,3.1-4.5,5.8-7.6,7.8c-0.1,0.1-0.1,0.1-0.1,0.3c0,0.1,0.1,0.2,0.2,0.2c3.2,1.7,6.8,2.5,10.5,2.5
		s7.3-0.9,10.5-2.5c0.1,0,0.1-0.1,0.2-0.2C-368.1,300.8-368.2,300.7-368.3,300.6z"/>
	<path class="st2" d="M-368.3,261.2c-3.2-1.7-6.8-2.5-10.5-2.5s-7.3,0.9-10.5,2.5c-0.1,0-0.1,0.1-0.2,0.2c0,0.1,0,0.2,0.1,0.3
		c3.1,2,5.7,4.6,7.6,7.8c1.2,2.1,2.1,4.3,2.6,6.6c0,0.1,0.1,0.2,0.3,0.2s0.2-0.1,0.3-0.2c0.5-2.3,1.4-4.6,2.6-6.6
		c1.9-3.1,4.5-5.8,7.6-7.8c0.1-0.1,0.1-0.1,0.1-0.3C-368.1,261.3-368.2,261.2-368.3,261.2z"/>
	<path class="st3" d="M-355.8,258.6c-3.6,0-7.3,0.9-10.5,2.5c-0.1,0-0.1,0.1-0.2,0.2c0,0.1,0,0.2,0.1,0.3c3.1,2,5.7,4.6,7.6,7.8
		c2.1,3.5,3.2,7.6,3.2,11.7c0,4.1-1.1,8.2-3.2,11.7c-1.9,3.1-4.5,5.8-7.6,7.8c-0.1,0.1-0.1,0.1-0.1,0.3c0,0.1,0.1,0.2,0.2,0.2
		c3.2,1.7,6.8,2.5,10.5,2.5c12.5,0,22.7-10.1,22.7-22.5C-333.2,268.7-343.3,258.6-355.8,258.6z"/>
</g>
</svg>
